<svg width="64" height="64" viewBox="0 0 64 64" fill="none" xmlns="http://www.w3.org/2000/svg">
<path d="M29.4 32.9C29.9 32.7 30.1 32.1 29.8 31.6C29.6 31.1 29 30.9 28.5 31.2C27.5 31.7 26.4 31.7 25.4 31.2C24.9 31 24.3 31.2 24.1 31.6C23.9 32 24.1 32.7 24.5 32.9C25.3 33.3 26.1 33.5 26.9 33.5C27.7 33.5 28.7 33.3 29.4 32.9Z" fill="#176b0f" id="id_101"></path>
<path d="M25 26C25.4 26 25.7 25.8 25.9 25.4C26.1 24.9 25.9 24.3 25.5 24.1C24 23.3 22.1 23.3 20.6 24.1C20.1 24.3 19.9 24.9 20.2 25.4C20.4 25.9 21 26.1 21.5 25.8C22.5 25.3 23.6 25.3 24.6 25.8C24.7 26 24.8 26 25 26Z" fill="#18750f" id="id_102"></path>
<path d="M29.4 25.9C30.4 25.4 31.5 25.4 32.5 25.9C32.7 26 32.8 26 33 26C33.4 26 33.7 25.8 33.9 25.4C34.1 24.9 33.9 24.3 33.5 24.1C32 23.3 30.1 23.3 28.6 24.1C28.1 24.3 27.9 24.9 28.2 25.4C28.5 25.9 29 26.1 29.4 25.9Z" fill="#10590a" id="id_103"></path>
<path d="M4 62C4.6 62 5 61.6 5 61V59.6C5 58.7 5.2 57.7 5.4 56.8C5.8 55.7 6 54.6 6 53.4V53.1C6 52.2 5.8 51.3 5.4 50.5C5.1 50 5 49.5 5 48.9V47C5 46.4 5.4 46 6 46H9C9.6 46 10 46.4 10 47V48.9C10 49.5 9.9 50.1 9.6 50.6C9.2 51.3 9 52.2 9 53.1V53.4C9 54.6 9.2 55.7 9.6 56.8C9.9 57.7 10 58.6 10 59.6V61C10 61.6 10.4 62 11 62C11.6 62 12 61.6 12 61V59.6C12 58.4 11.8 57.3 11.4 56.2C11.1 55.3 11 54.4 11 53.4V53.1C11 52.5 11.1 51.9 11.4 51.4C11.5 51.3 11.5 51.1 11.6 51H14V61C14 61.6 14.4 62 15 62H26V56H16V54H26V50H28V54H38V56H28V62H39C39.6 62 40 61.6 40 61V51C40.1 51 40.3 51 40.4 51H42.4C42.5 51.2 42.5 51.3 42.6 51.4C42.9 51.9 43 52.5 43 53.1V53.4C43 54.3 42.8 55.3 42.6 56.2C42.2 57.3 42 58.4 42 59.6V61C42 61.6 42.4 62 43 62C43.6 62 44 61.6 44 61V59.6C44 58.7 44.2 57.7 44.4 56.8C44.8 55.7 45 54.6 45 53.4V53.1C45 52.2 44.8 51.3 44.4 50.5C44.1 50 44 49.5 44 48.9V47C44 46.4 44.4 46 45 46H48C48.6 46 49 46.4 49 47V48.9C49 49.5 48.9 50.1 48.6 50.6C48.2 51.4 48 52.3 48 53.2V53.5C48 54.7 48.2 55.8 48.6 56.9C48.9 57.8 49 58.7 49 59.7V61C49 61.6 49.4 62 50 62C50.6 62 51 61.6 51 61V59.6C51 58.4 50.8 57.3 50.4 56.2C50.1 55.3 50 54.4 50 53.4V53.1C50 52.5 50.1 51.9 50.4 51.4C50.5 51.3 50.5 51.1 50.6 51H51.2C52.3 52.8 54.2 54 56.4 54C58.8 54 60.9 52.6 61.9 50.4C62 50.1 62 49.7 61.8 49.5C61.7 49.2 61.3 49 61 49H58.4C57.8 49 57.4 48.6 57.4 48C57.4 47.4 57.8 47 58.4 47H61C61.3 47 61.7 46.8 61.8 46.5C62 46.2 62 45.9 61.9 45.6C60.9 43.4 58.8 42 56.4 42C54.2 42 52.3 43.2 51.2 45H50.2C49.7 44.4 48.9 44 48 44H46.9C46.4 39.5 42.6 36 38 36H33.3C36.1 34 38 30.7 38 27V26.9C40.3 26.4 42 24.4 42 22V21V19C42 17.3 40.7 16 39 16C39 13.7 38.4 11.6 37.2 9.7L37.8 8.3C38 7.8 38 7.2 37.8 6.6C37.6 6 37.1 5.7 36.5 5.5L34.9 5.1C34.3 4.9 33.7 5.1 33.2 5.4C33.1 5.5 33 5.6 32.9 5.7C32.4 5.4 31.9 5.2 31.4 5C31.4 4.4 31.2 3.7 30.8 3.2C30.3 2.4 29.4 2 28.5 2H25.5C24.6 2 23.7 2.4 23.2 3.1C22.8 3.6 22.6 4.2 22.6 4.9C22.1 5.1 21.6 5.4 21.1 5.6C21 5.5 20.9 5.4 20.8 5.3C20.3 5 19.7 4.9 19.1 5L17.5 5.4C16.9 5.6 16.5 5.9 16.2 6.5C15.9 7.1 15.9 7.6 16.2 8.2L16.8 9.6C15.6 11.6 15 13.7 15 16C13.3 16 12 17.3 12 19V21V22C12 24.4 13.7 26.4 16 26.9V27C16 30.7 17.9 34 20.7 36H16C11.4 36 7.6 39.5 7.1 44H6C4.3 44 3 45.3 3 47V48.9C3 49.8 3.2 50.7 3.6 51.5C3.9 52 4 52.5 4 53.1V53.4C4 54.3 3.8 55.3 3.6 56.2C3.2 57.3 3 58.4 3 59.6V61C3 61.6 3.4 62 4 62ZM51 48.9V47H51.8C52.2 47 52.6 46.8 52.7 46.4C53.3 44.9 54.8 44 56.4 44C57.4 44 58.3 44.4 59 45H58.4C56.7 45 55.4 46.3 55.4 48C55.4 49.7 56.7 51 58.4 51H59C58.3 51.6 57.4 52 56.4 52C54.8 52 53.4 51.1 52.7 49.6C52.5 49.2 52.2 49 51.8 49H51V48.9ZM40.4 49C39.8 49 39.4 48.6 39.4 48C39.4 47.4 39.8 47 40.4 47H42V48.9V49H40.4ZM38 38C41.5 38 44.4 40.6 44.9 44C44 44 43.3 44.4 42.8 45H40.4C39.7 45 39.1 45.2 38.6 45.6L38 44.7V38ZM31 43.6L27 48.4L23 43.6V41.4C24.1 42.4 25.5 42.9 27 42.9C28.5 42.9 29.9 42.3 31 41.4V43.6ZM23 37.2C24.2 37.7 25.6 38 27 38C28.4 38 29.7 37.7 31 37.2C30.9 39.3 29.1 41 27 41C24.9 41 23.2 39.3 23 37.2ZM38 24.8V22H40C40 23.3 39.2 24.4 38 24.8ZM34.4 7L36 7.4L34.3 11.1L34 11L34.4 7ZM24.7 4.4C24.9 4.1 25.2 4 25.5 4H28.5C28.8 4 29.1 4.1 29.3 4.4C29.5 4.6 29.6 4.9 29.5 5.2L28.2 11H25.8L24.5 5.2C24.5 4.9 24.5 4.6 24.7 4.4ZM19.6 7L20 11L19.7 11.1L18 7.4L19.6 7ZM16 24.8C14.8 24.4 14 23.3 14 22H16V24.8ZM14 20V19C14 18.4 14.4 18 15 18H39C39.6 18 40 18.4 40 19V20H37H17H14ZM18 27V26V22H36V26V27C36 32 32 36 27 36C22 36 18 32 18 27ZM16 38V44.7L14.2 47.4C14.1 47.6 14 47.8 14 48V49H12V48.9V47C12 45.4 10.7 44.1 9.1 44C9.6 40.6 12.5 38 16 38Z" fill="#115922" id="id_104"></path>
</svg>